<mxfile host="www.draw.io" modified="2019-12-25T03:05:21.194Z" agent="Mozilla/5.0 (Macintosh; Intel Mac OS X 10_13_4) AppleWebKit/537.36 (KHTML, like Gecko) Chrome/77.0.3865.90 Safari/537.36" etag="VMJGk7Sv4cIaCPGr7Z8n" version="12.4.3" type="github" pages="1">
  <diagram id="BzF8ZXv_jmOTnn-lCvaR" name="Page-1">
    <mxGraphModel dx="786" dy="465" grid="1" gridSize="10" guides="1" tooltips="1" connect="1" arrows="1" fold="1" page="1" pageScale="1" pageWidth="826" pageHeight="1169" math="0" shadow="0">
      <root>
        <mxCell id="0"/>
        <mxCell id="1" parent="0"/>
        <mxCell id="G4fKD_SWyBFs1RFF6guc-2" value="t_event (埋点事件表)" style="shape=process;whiteSpace=wrap;html=1;backgroundOutline=1;strokeWidth=2;fillColor=#dae8fc;strokeColor=#6c8ebf;" vertex="1" parent="1">
          <mxGeometry x="440" y="120" width="160" height="40" as="geometry"/>
        </mxCell>
        <mxCell id="G4fKD_SWyBFs1RFF6guc-3" value="" style="endArrow=none;dashed=1;html=1;strokeWidth=2;" edge="1" parent="1">
          <mxGeometry width="50" height="50" relative="1" as="geometry">
            <mxPoint x="160" y="980" as="sourcePoint"/>
            <mxPoint x="160" y="50" as="targetPoint"/>
          </mxGeometry>
        </mxCell>
        <mxCell id="G4fKD_SWyBFs1RFF6guc-4" value="" style="endArrow=none;dashed=1;html=1;strokeWidth=2;" edge="1" parent="1">
          <mxGeometry width="50" height="50" relative="1" as="geometry">
            <mxPoint x="400" y="990" as="sourcePoint"/>
            <mxPoint x="400" y="40" as="targetPoint"/>
          </mxGeometry>
        </mxCell>
        <mxCell id="G4fKD_SWyBFs1RFF6guc-5" value="" style="endArrow=none;dashed=1;html=1;strokeWidth=2;" edge="1" parent="1">
          <mxGeometry width="50" height="50" relative="1" as="geometry">
            <mxPoint x="640" y="990" as="sourcePoint"/>
            <mxPoint x="640" y="40" as="targetPoint"/>
          </mxGeometry>
        </mxCell>
        <mxCell id="G4fKD_SWyBFs1RFF6guc-6" value="" style="endArrow=none;dashed=1;html=1;strokeWidth=2;" edge="1" parent="1">
          <mxGeometry width="50" height="50" relative="1" as="geometry">
            <mxPoint x="100" y="220" as="sourcePoint"/>
            <mxPoint x="700" y="220" as="targetPoint"/>
          </mxGeometry>
        </mxCell>
        <mxCell id="G4fKD_SWyBFs1RFF6guc-7" value="&lt;font style=&quot;font-size: 12px&quot;&gt;&lt;span style=&quot;font-family: &amp;#34;arial&amp;#34; , sans-serif&quot;&gt;&lt;font style=&quot;font-size: 12px&quot;&gt;wt_biz_event&lt;/font&gt;&lt;/span&gt;&lt;font color=&quot;rgba(0, 0, 0, 0)&quot; style=&quot;font-size: 12px&quot;&gt;&amp;nbsp;&lt;/font&gt;(埋点事件表)&lt;/font&gt;" style="shape=process;whiteSpace=wrap;html=1;backgroundOutline=1;strokeWidth=2;fillColor=#e1d5e7;strokeColor=#9673a6;" vertex="1" parent="1">
          <mxGeometry x="200" y="90" width="160" height="40" as="geometry"/>
        </mxCell>
        <mxCell id="G4fKD_SWyBFs1RFF6guc-8" value="老仓颉" style="text;html=1;strokeColor=none;fillColor=none;align=center;verticalAlign=middle;whiteSpace=wrap;rounded=0;" vertex="1" parent="1">
          <mxGeometry x="250" y="50" width="40" height="20" as="geometry"/>
        </mxCell>
        <mxCell id="G4fKD_SWyBFs1RFF6guc-11" value="新仓颉" style="text;html=1;strokeColor=none;fillColor=none;align=center;verticalAlign=middle;whiteSpace=wrap;rounded=0;" vertex="1" parent="1">
          <mxGeometry x="490" y="50" width="40" height="20" as="geometry"/>
        </mxCell>
        <mxCell id="G4fKD_SWyBFs1RFF6guc-12" value="&lt;span style=&quot;font-family: &amp;#34;open sans&amp;#34; , &amp;#34;helvetica neue&amp;#34; , &amp;#34;helvetica&amp;#34; , &amp;#34;arial&amp;#34; , sans-serif&quot;&gt;&lt;font style=&quot;font-size: 12px&quot;&gt;wt_biz_event_dev_history&lt;/font&gt;&lt;/span&gt;&lt;div&gt;&lt;font face=&quot;open sans, helvetica neue, helvetica, arial, sans-serif&quot;&gt;&amp;nbsp;(事件开发记录表)&lt;/font&gt;&lt;/div&gt;" style="shape=process;whiteSpace=wrap;html=1;backgroundOutline=1;strokeWidth=2;fillColor=#e1d5e7;strokeColor=#9673a6;" vertex="1" parent="1">
          <mxGeometry x="175" y="150" width="205" height="40" as="geometry"/>
        </mxCell>
        <mxCell id="G4fKD_SWyBFs1RFF6guc-13" value="&lt;font style=&quot;font-size: 16px&quot;&gt;事件表&lt;/font&gt;" style="text;html=1;strokeColor=none;fillColor=none;align=center;verticalAlign=middle;whiteSpace=wrap;rounded=0;" vertex="1" parent="1">
          <mxGeometry x="110" y="120" width="30" height="20" as="geometry"/>
        </mxCell>
        <mxCell id="G4fKD_SWyBFs1RFF6guc-18" value="" style="endArrow=none;dashed=1;html=1;strokeWidth=2;" edge="1" parent="1">
          <mxGeometry width="50" height="50" relative="1" as="geometry">
            <mxPoint x="100" y="320" as="sourcePoint"/>
            <mxPoint x="700" y="320" as="targetPoint"/>
          </mxGeometry>
        </mxCell>
        <mxCell id="G4fKD_SWyBFs1RFF6guc-19" value="&lt;br&gt;t_app_version(版本表)&lt;br&gt;&lt;h4 id=&quot;id-006_01_埋点2.0技术方案-3.1.3app版本表t_app_version&quot; style=&quot;margin: 20px 0px 0px ; padding: 0px ; line-height: 1.42857 ; font-family: &amp;#34;arial&amp;#34; , sans-serif ; background-color: rgb(255 , 255 , 255)&quot;&gt;&lt;/h4&gt;" style="shape=process;whiteSpace=wrap;html=1;backgroundOutline=1;strokeWidth=2;fillColor=#e1d5e7;strokeColor=#9673a6;" vertex="1" parent="1">
          <mxGeometry x="200" y="250" width="160" height="40" as="geometry"/>
        </mxCell>
        <mxCell id="G4fKD_SWyBFs1RFF6guc-22" value="&lt;br&gt;t_app_version(版本表)&lt;br&gt;&lt;h4 id=&quot;id-006_01_埋点2.0技术方案-3.1.3app版本表t_app_version&quot; style=&quot;margin: 20px 0px 0px ; padding: 0px ; line-height: 1.42857 ; font-family: &amp;#34;arial&amp;#34; , sans-serif ; background-color: rgb(255 , 255 , 255)&quot;&gt;&lt;/h4&gt;" style="shape=process;whiteSpace=wrap;html=1;backgroundOutline=1;strokeWidth=2;fillColor=#dae8fc;strokeColor=#6c8ebf;" vertex="1" parent="1">
          <mxGeometry x="440" y="250" width="160" height="40" as="geometry"/>
        </mxCell>
        <mxCell id="G4fKD_SWyBFs1RFF6guc-23" value="&lt;font style=&quot;font-size: 16px&quot;&gt;版本表&lt;/font&gt;" style="text;html=1;strokeColor=none;fillColor=none;align=center;verticalAlign=middle;whiteSpace=wrap;rounded=0;" vertex="1" parent="1">
          <mxGeometry x="110" y="260" width="30" height="20" as="geometry"/>
        </mxCell>
        <mxCell id="G4fKD_SWyBFs1RFF6guc-24" value="&lt;br&gt;&lt;span style=&quot;font-family: &amp;#34;consolas&amp;#34; , &amp;#34;bitstream vera sans mono&amp;#34; , &amp;#34;courier new&amp;#34; , &amp;#34;courier&amp;#34; , monospace ; text-align: left ; white-space: nowrap&quot;&gt;&lt;font style=&quot;font-size: 12px&quot;&gt;t_event_define&lt;/font&gt;&lt;/span&gt;(事件定义表)&lt;br&gt;&lt;h4 id=&quot;id-006_01_埋点2.0技术方案-3.1.3app版本表t_app_version&quot; style=&quot;margin: 20px 0px 0px ; padding: 0px ; line-height: 1.42857 ; font-family: &amp;#34;arial&amp;#34; , sans-serif ; background-color: rgb(255 , 255 , 255)&quot;&gt;&lt;/h4&gt;" style="shape=process;whiteSpace=wrap;html=1;backgroundOutline=1;strokeWidth=2;fillColor=#dae8fc;strokeColor=#6c8ebf;" vertex="1" parent="1">
          <mxGeometry x="440" y="380" width="160" height="40" as="geometry"/>
        </mxCell>
        <mxCell id="G4fKD_SWyBFs1RFF6guc-25" value="" style="endArrow=none;dashed=1;html=1;strokeWidth=2;" edge="1" parent="1">
          <mxGeometry width="50" height="50" relative="1" as="geometry">
            <mxPoint x="100" y="470" as="sourcePoint"/>
            <mxPoint x="700" y="470" as="targetPoint"/>
          </mxGeometry>
        </mxCell>
        <mxCell id="G4fKD_SWyBFs1RFF6guc-26" value="&lt;font style=&quot;font-size: 12px&quot;&gt;&lt;br&gt;&lt;/font&gt;&lt;div&gt;&lt;font style=&quot;font-size: 12px&quot;&gt;&lt;font face=&quot;consolas, bitstream vera sans mono, courier new, courier, monospace&quot; style=&quot;font-size: 12px&quot;&gt;&lt;span style=&quot;white-space: nowrap&quot;&gt;wt_event&lt;/span&gt;&lt;/font&gt;(事件定义表)&lt;/font&gt;&lt;/div&gt;&lt;h4 id=&quot;id-006_01_埋点2.0技术方案-3.1.3app版本表t_app_version&quot; style=&quot;margin: 20px 0px 0px ; padding: 0px ; line-height: 1.42857 ; font-family: &amp;#34;arial&amp;#34; , sans-serif ; background-color: rgb(255 , 255 , 255)&quot;&gt;&lt;/h4&gt;" style="shape=process;whiteSpace=wrap;html=1;backgroundOutline=1;strokeWidth=2;fillColor=#e1d5e7;strokeColor=#9673a6;" vertex="1" parent="1">
          <mxGeometry x="200" y="350" width="160" height="40" as="geometry"/>
        </mxCell>
        <mxCell id="G4fKD_SWyBFs1RFF6guc-27" value="&lt;div&gt;&lt;font face=&quot;open sans, helvetica neue, helvetica, arial, sans-serif&quot;&gt;user_track_protocol (协议表)&lt;/font&gt;&lt;/div&gt;" style="shape=process;whiteSpace=wrap;html=1;backgroundOutline=1;strokeWidth=2;fillColor=#e1d5e7;strokeColor=#9673a6;" vertex="1" parent="1">
          <mxGeometry x="200" y="410" width="160" height="40" as="geometry"/>
        </mxCell>
        <mxCell id="G4fKD_SWyBFs1RFF6guc-28" value="&lt;font style=&quot;font-size: 16px&quot;&gt;事件定义表&lt;/font&gt;" style="text;html=1;strokeColor=none;fillColor=none;align=center;verticalAlign=middle;whiteSpace=wrap;rounded=0;" vertex="1" parent="1">
          <mxGeometry x="110" y="390" width="30" height="20" as="geometry"/>
        </mxCell>
        <mxCell id="G4fKD_SWyBFs1RFF6guc-34" value="&lt;span style=&quot;font-family: &amp;#34;open sans&amp;#34; , &amp;#34;helvetica neue&amp;#34; , &amp;#34;helvetica&amp;#34; , &amp;#34;arial&amp;#34; , sans-serif ; font-size: 13px&quot;&gt;wt_user_tags (&lt;/span&gt;&lt;span style=&quot;font-family: &amp;#34;open sans&amp;#34; , &amp;#34;helvetica neue&amp;#34; , &amp;#34;helvetica&amp;#34; , &amp;#34;arial&amp;#34; , sans-serif&quot;&gt;用户检索标签表&lt;/span&gt;&lt;span style=&quot;font-family: &amp;#34;open sans&amp;#34; , &amp;#34;helvetica neue&amp;#34; , &amp;#34;helvetica&amp;#34; , &amp;#34;arial&amp;#34; , sans-serif ; font-size: 13px&quot;&gt;)&lt;br&gt;&lt;/span&gt;" style="shape=process;whiteSpace=wrap;html=1;backgroundOutline=1;strokeWidth=2;fillColor=#e1d5e7;strokeColor=#9673a6;" vertex="1" parent="1">
          <mxGeometry x="200" y="515" width="160" height="40" as="geometry"/>
        </mxCell>
        <mxCell id="G4fKD_SWyBFs1RFF6guc-35" value="" style="endArrow=none;dashed=1;html=1;strokeWidth=2;" edge="1" parent="1">
          <mxGeometry width="50" height="50" relative="1" as="geometry">
            <mxPoint x="100" y="600" as="sourcePoint"/>
            <mxPoint x="700" y="600" as="targetPoint"/>
          </mxGeometry>
        </mxCell>
        <mxCell id="G4fKD_SWyBFs1RFF6guc-36" value="&lt;span style=&quot;font-family: &amp;#34;open sans&amp;#34; , &amp;#34;helvetica neue&amp;#34; , &amp;#34;helvetica&amp;#34; , &amp;#34;arial&amp;#34; , sans-serif ; font-size: 13px&quot;&gt;t_user_tags (&lt;/span&gt;&lt;span style=&quot;font-family: &amp;#34;open sans&amp;#34; , &amp;#34;helvetica neue&amp;#34; , &amp;#34;helvetica&amp;#34; , &amp;#34;arial&amp;#34; , sans-serif&quot;&gt;用户检索标签表&lt;/span&gt;&lt;span style=&quot;font-family: &amp;#34;open sans&amp;#34; , &amp;#34;helvetica neue&amp;#34; , &amp;#34;helvetica&amp;#34; , &amp;#34;arial&amp;#34; , sans-serif ; font-size: 13px&quot;&gt;)&lt;br&gt;&lt;/span&gt;" style="shape=process;whiteSpace=wrap;html=1;backgroundOutline=1;strokeWidth=2;fillColor=#dae8fc;strokeColor=#6c8ebf;" vertex="1" parent="1">
          <mxGeometry x="440" y="515" width="160" height="40" as="geometry"/>
        </mxCell>
        <mxCell id="G4fKD_SWyBFs1RFF6guc-37" value="&lt;font style=&quot;font-size: 16px&quot;&gt;自定义标签表&lt;/font&gt;" style="text;html=1;strokeColor=none;fillColor=none;align=center;verticalAlign=middle;whiteSpace=wrap;rounded=0;" vertex="1" parent="1">
          <mxGeometry x="110" y="520" width="30" height="30" as="geometry"/>
        </mxCell>
        <mxCell id="G4fKD_SWyBFs1RFF6guc-38" value="" style="endArrow=none;dashed=1;html=1;strokeWidth=2;" edge="1" parent="1">
          <mxGeometry width="50" height="50" relative="1" as="geometry">
            <mxPoint x="100" y="690" as="sourcePoint"/>
            <mxPoint x="700" y="690" as="targetPoint"/>
          </mxGeometry>
        </mxCell>
        <mxCell id="G4fKD_SWyBFs1RFF6guc-40" value="&lt;font style=&quot;font-size: 12px&quot;&gt;&lt;span style=&quot;font-family: &amp;#34;consolas&amp;#34; , &amp;#34;bitstream vera sans mono&amp;#34; , &amp;#34;courier new&amp;#34; , &amp;#34;courier&amp;#34; , monospace ; text-align: left ; white-space: nowrap&quot;&gt;t_config&lt;/span&gt;&lt;span style=&quot;font-family: &amp;#34;open sans&amp;#34; , &amp;#34;helvetica neue&amp;#34; , &amp;#34;helvetica&amp;#34; , &amp;#34;arial&amp;#34; , sans-serif&quot;&gt;&amp;nbsp;(&lt;/span&gt;&lt;span style=&quot;font-family: &amp;#34;open sans&amp;#34; , &amp;#34;helvetica neue&amp;#34; , &amp;#34;helvetica&amp;#34; , &amp;#34;arial&amp;#34; , sans-serif&quot;&gt;配置表&lt;/span&gt;&lt;/font&gt;&lt;span style=&quot;font-family: &amp;#34;open sans&amp;#34; , &amp;#34;helvetica neue&amp;#34; , &amp;#34;helvetica&amp;#34; , &amp;#34;arial&amp;#34; , sans-serif&quot;&gt;&lt;font style=&quot;font-size: 12px&quot;&gt;)&lt;/font&gt;&lt;br&gt;&lt;/span&gt;" style="shape=process;whiteSpace=wrap;html=1;backgroundOutline=1;strokeWidth=2;fillColor=#dae8fc;strokeColor=#6c8ebf;" vertex="1" parent="1">
          <mxGeometry x="440" y="620" width="160" height="40" as="geometry"/>
        </mxCell>
        <mxCell id="G4fKD_SWyBFs1RFF6guc-41" value="&lt;font style=&quot;font-size: 16px&quot;&gt;配置表&lt;/font&gt;" style="text;html=1;strokeColor=none;fillColor=none;align=center;verticalAlign=middle;whiteSpace=wrap;rounded=0;" vertex="1" parent="1">
          <mxGeometry x="110" y="640" width="30" height="20" as="geometry"/>
        </mxCell>
        <mxCell id="G4fKD_SWyBFs1RFF6guc-42" value="" style="endArrow=none;dashed=1;html=1;strokeWidth=2;" edge="1" parent="1">
          <mxGeometry width="50" height="50" relative="1" as="geometry">
            <mxPoint x="100" y="780" as="sourcePoint"/>
            <mxPoint x="700" y="780" as="targetPoint"/>
          </mxGeometry>
        </mxCell>
        <mxCell id="G4fKD_SWyBFs1RFF6guc-43" value="&lt;font style=&quot;font-size: 12px&quot;&gt;&lt;span style=&quot;font-family: &amp;#34;consolas&amp;#34; , &amp;#34;bitstream vera sans mono&amp;#34; , &amp;#34;courier new&amp;#34; , &amp;#34;courier&amp;#34; , monospace ; text-align: left ; white-space: nowrap&quot;&gt;t_label&lt;/span&gt;&lt;span style=&quot;font-family: &amp;#34;open sans&amp;#34; , &amp;#34;helvetica neue&amp;#34; , &amp;#34;helvetica&amp;#34; , &amp;#34;arial&amp;#34; , sans-serif&quot;&gt;&amp;nbsp;(事件标签&lt;/span&gt;&lt;span style=&quot;font-family: &amp;#34;open sans&amp;#34; , &amp;#34;helvetica neue&amp;#34; , &amp;#34;helvetica&amp;#34; , &amp;#34;arial&amp;#34; , sans-serif&quot;&gt;表&lt;/span&gt;&lt;/font&gt;&lt;span style=&quot;font-family: &amp;#34;open sans&amp;#34; , &amp;#34;helvetica neue&amp;#34; , &amp;#34;helvetica&amp;#34; , &amp;#34;arial&amp;#34; , sans-serif&quot;&gt;&lt;font style=&quot;font-size: 12px&quot;&gt;)&lt;/font&gt;&lt;br&gt;&lt;/span&gt;" style="shape=process;whiteSpace=wrap;html=1;backgroundOutline=1;strokeWidth=2;fillColor=#dae8fc;strokeColor=#6c8ebf;" vertex="1" parent="1">
          <mxGeometry x="440" y="720" width="160" height="40" as="geometry"/>
        </mxCell>
        <mxCell id="G4fKD_SWyBFs1RFF6guc-44" value="&lt;font style=&quot;font-size: 16px&quot;&gt;标签表&lt;/font&gt;" style="text;html=1;strokeColor=none;fillColor=none;align=center;verticalAlign=middle;whiteSpace=wrap;rounded=0;" vertex="1" parent="1">
          <mxGeometry x="110" y="700" width="30" height="80" as="geometry"/>
        </mxCell>
        <mxCell id="G4fKD_SWyBFs1RFF6guc-45" value="" style="endArrow=none;dashed=1;html=1;strokeWidth=2;" edge="1" parent="1">
          <mxGeometry width="50" height="50" relative="1" as="geometry">
            <mxPoint x="160" y="880" as="sourcePoint"/>
            <mxPoint x="700" y="880" as="targetPoint"/>
          </mxGeometry>
        </mxCell>
        <mxCell id="G4fKD_SWyBFs1RFF6guc-46" value="&lt;font style=&quot;font-size: 12px&quot;&gt;&lt;span style=&quot;font-family: &amp;#34;consolas&amp;#34; , &amp;#34;bitstream vera sans mono&amp;#34; , &amp;#34;courier new&amp;#34; , &amp;#34;courier&amp;#34; , monospace ; text-align: left ; white-space: nowrap&quot;&gt;t_check_task&lt;/span&gt;&lt;span style=&quot;font-family: &amp;#34;open sans&amp;#34; , &amp;#34;helvetica neue&amp;#34; , &amp;#34;helvetica&amp;#34; , &amp;#34;arial&amp;#34; , sans-serif&quot;&gt;&amp;nbsp;(校验任务&lt;/span&gt;&lt;span style=&quot;font-family: &amp;#34;open sans&amp;#34; , &amp;#34;helvetica neue&amp;#34; , &amp;#34;helvetica&amp;#34; , &amp;#34;arial&amp;#34; , sans-serif&quot;&gt;表&lt;/span&gt;&lt;/font&gt;&lt;span style=&quot;font-family: &amp;#34;open sans&amp;#34; , &amp;#34;helvetica neue&amp;#34; , &amp;#34;helvetica&amp;#34; , &amp;#34;arial&amp;#34; , sans-serif&quot;&gt;&lt;font style=&quot;font-size: 12px&quot;&gt;)&lt;/font&gt;&lt;br&gt;&lt;/span&gt;" style="shape=process;whiteSpace=wrap;html=1;backgroundOutline=1;strokeWidth=2;fillColor=#dae8fc;strokeColor=#6c8ebf;" vertex="1" parent="1">
          <mxGeometry x="440" y="810" width="160" height="40" as="geometry"/>
        </mxCell>
        <mxCell id="G4fKD_SWyBFs1RFF6guc-47" value="&lt;span style=&quot;font-family: &amp;#34;consolas&amp;#34; , &amp;#34;bitstream vera sans mono&amp;#34; , &amp;#34;courier new&amp;#34; , &amp;#34;courier&amp;#34; , monospace ; font-size: 14px ; text-align: left ; white-space: nowrap&quot;&gt;t_check_record&lt;/span&gt;&lt;span style=&quot;font-family: &amp;#34;open sans&amp;#34; , &amp;#34;helvetica neue&amp;#34; , &amp;#34;helvetica&amp;#34; , &amp;#34;arial&amp;#34; , sans-serif ; font-size: 13px&quot;&gt;&amp;nbsp;(校验记录&lt;/span&gt;&lt;span style=&quot;font-family: &amp;#34;open sans&amp;#34; , &amp;#34;helvetica neue&amp;#34; , &amp;#34;helvetica&amp;#34; , &amp;#34;arial&amp;#34; , sans-serif&quot;&gt;表&lt;/span&gt;&lt;span style=&quot;font-family: &amp;#34;open sans&amp;#34; , &amp;#34;helvetica neue&amp;#34; , &amp;#34;helvetica&amp;#34; , &amp;#34;arial&amp;#34; , sans-serif ; font-size: 13px&quot;&gt;)&lt;br&gt;&lt;/span&gt;" style="shape=process;whiteSpace=wrap;html=1;backgroundOutline=1;strokeWidth=2;fillColor=#dae8fc;strokeColor=#6c8ebf;" vertex="1" parent="1">
          <mxGeometry x="440" y="910" width="160" height="40" as="geometry"/>
        </mxCell>
        <mxCell id="G4fKD_SWyBFs1RFF6guc-48" value="&lt;font style=&quot;font-size: 16px&quot;&gt;任务相关表&lt;/font&gt;" style="text;html=1;strokeColor=none;fillColor=none;align=center;verticalAlign=middle;whiteSpace=wrap;rounded=0;" vertex="1" parent="1">
          <mxGeometry x="110" y="840" width="30" height="80" as="geometry"/>
        </mxCell>
        <mxCell id="G4fKD_SWyBFs1RFF6guc-49" value="" style="endArrow=none;dashed=1;html=1;strokeWidth=2;" edge="1" parent="1">
          <mxGeometry width="50" height="50" relative="1" as="geometry">
            <mxPoint x="100" y="990" as="sourcePoint"/>
            <mxPoint x="700" y="990" as="targetPoint"/>
          </mxGeometry>
        </mxCell>
      </root>
    </mxGraphModel>
  </diagram>
</mxfile>
